<svg width="30" height="28" viewBox="0 0 30 28" fill="none" xmlns="http://www.w3.org/2000/svg">
<g clip-path="url(#clip0_226_930)">
<path d="M22.5354 16.9212L21.8874 19.1066C21.7619 19.5394 21.3857 19.8423 20.9467 19.8423H18.7099L20.5495 21.2921C20.8839 21.5518 21.0303 22.0062 20.9048 22.4173L20.215 24.6893L21.9292 23.3261C22.0964 23.1747 22.3055 23.1097 22.5354 23.1097C22.7445 23.1097 22.9744 23.1747 23.1416 23.3261L24.8558 24.6893L24.166 22.4173C24.0406 22.0062 24.1869 21.5518 24.5214 21.2921L26.361 19.8423H24.1242C23.6852 19.8423 23.3089 19.5394 23.1835 19.1066L22.5354 16.9212ZM13.5255 1.8609C10.787 1.8609 8.57107 4.15456 8.57107 6.98918C8.57107 9.73725 10.6615 11.9876 13.2746 12.1175H13.5046H13.5255H13.5464H13.7763C16.3894 11.9876 18.4799 9.73725 18.4799 6.98918C18.4799 4.1762 16.2431 1.8609 13.5255 1.8609ZM13.5255 0C17.2465 0 20.2777 3.13756 20.2777 6.98918C20.2777 9.28284 19.2116 11.3168 17.5601 12.5935L17.372 12.745L17.6019 12.8099C18.898 13.2643 20.1314 13.9351 21.2184 14.8223L21.2602 14.8655L21.5738 13.7836C21.6992 13.3509 22.0755 13.0479 22.5145 13.0479C22.9535 13.0479 23.3298 13.3292 23.4552 13.7836L24.7095 17.9815H28.7232C29.1413 17.9815 29.5385 18.2628 29.6639 18.6739C29.8102 19.1066 29.6639 19.5611 29.3294 19.8207L26.0474 22.4173L27.3017 26.6368C27.4271 27.0696 27.2808 27.524 26.9254 27.7836C26.7582 27.9134 26.5491 27.9784 26.361 27.9784C26.1519 27.9784 25.9429 27.9134 25.7547 27.762L22.5145 25.2087L19.2952 27.7836C18.9607 28.0649 18.4799 28.0649 18.1245 27.8053C17.7691 27.5456 17.6228 27.0912 17.7482 26.6584L19.0025 22.4389L15.7205 19.8423C15.386 19.5827 15.2397 19.1066 15.386 18.6955C15.5323 18.2844 15.9086 18.0031 16.3267 18.0031H20.3404L20.6958 16.813C18.7726 15.0386 16.3267 14.0649 13.7763 14H13.5673H13.5255H13.4837H13.2328C7.40041 14.1515 2.69685 19.085 2.69685 25.1221H0.899048C0.899048 19.4096 4.49466 14.5626 9.46998 12.8099L9.65812 12.745L9.46998 12.6151C7.8185 11.3385 6.75236 9.30448 6.75236 7.01082C6.75236 3.13756 9.78355 0 13.5255 0Z" fill="white"/>
</g>
<defs>
<clipPath id="clip0_226_930">
<rect width="28.8485" height="28" fill="white" transform="translate(0.899048)"/>
</clipPath>
</defs>
</svg>
