<svg width="36" height="36" viewBox="0 0 36 36" fill="none" xmlns="http://www.w3.org/2000/svg">
<circle cx="17.6853" cy="18.0964" r="17.5" fill="#831335"/>
<path d="M12.7491 23.9282C14.0961 25.2153 15.907 25.9936 17.8975 25.9936C19.8281 25.9936 21.5642 25.2901 22.9261 24.0629V24.1228C22.9261 24.1228 25.0513 24.9609 25.5003 27.5351C25.5003 27.5351 17.5233 32.7433 10.0552 27.2806C10.0402 27.2208 10.8783 24.3173 12.7491 23.9282ZM15.6975 20.6506C16.0866 21.4887 16.9247 22.0724 17.8825 22.0724C18.8553 22.0724 19.6785 21.4887 20.0676 20.6506H15.6975ZM20.9207 15.3077C20.337 15.3077 19.7683 15.7567 19.4989 16.4601L19.439 16.6546H20.0227L20.0826 16.5948C20.5315 16.0111 21.3098 16.0111 21.7588 16.5948L21.8186 16.6546H22.4023L22.3275 16.4601C22.0132 15.7567 21.5043 15.3077 20.9207 15.3077ZM14.2906 15.3077C13.707 15.3077 13.1382 15.7567 12.8688 16.4601L12.809 16.6546H13.3927L13.4525 16.5948C13.9015 16.0111 14.6798 16.0111 15.1287 16.5948L15.1886 16.6546H15.6975L15.6376 16.4601C15.3832 15.7567 14.8743 15.3077 14.2906 15.3077ZM16.9846 9.12665C16.4757 9.38107 16.0118 9.71033 15.6975 10.2192C15.2485 10.8627 15.1138 11.641 15.3083 12.3444L15.9519 12.2097C15.8172 11.626 15.9519 11.0573 16.2811 10.5335C16.6104 10.0246 17.1791 9.6355 17.8227 9.5008C18.8553 9.30624 19.8132 9.94979 20.0077 10.8478C20.0676 11.177 20.0077 11.5512 19.8132 11.8206C19.6186 12.1498 19.3043 12.3294 18.9152 12.4042C18.3315 12.5389 17.7628 12.1498 17.6281 11.626C17.5682 11.4314 17.6281 11.2369 17.7628 11.1172C17.8975 10.9226 18.092 10.7879 18.2716 10.7879C18.5859 10.728 18.9152 10.9226 18.9152 11.2369C18.9152 11.2967 18.9152 11.4314 18.8553 11.4913C18.7955 11.5512 18.7206 11.626 18.6009 11.6859L18.7356 12.3294C18.99 12.2695 19.2444 12.1349 19.3791 11.8804C19.5138 11.6859 19.5737 11.3716 19.5138 11.177C19.3791 10.5335 18.7356 10.1443 18.0921 10.279C17.7029 10.3389 17.3886 10.6083 17.1941 10.8627C16.9995 11.192 16.9397 11.5063 16.9995 11.8954C17.1941 12.6736 17.8975 13.1825 18.6757 13.1825C18.8104 13.1825 18.8703 13.1825 19.005 13.1226C19.5887 12.9879 20.0377 12.7335 20.2921 12.2247C20.5465 11.7757 20.6812 11.2518 20.5465 10.743C20.3968 10.0246 19.9479 9.51577 19.3791 9.18651C22.4622 9.83006 24.9166 12.2695 25.4255 15.4873H25.4853C26.6377 15.4873 27.5507 16.4601 27.5507 17.6125C27.5507 18.7649 26.6527 19.7377 25.4853 19.7377C25.3507 19.7377 25.1711 19.7377 25.0364 19.6778C23.9438 22.6411 21.1152 24.8262 17.8227 24.8262C14.2757 24.8262 11.3273 22.3867 10.4144 19.0343C10.2797 19.0343 10.16 19.0941 9.96541 19.0941C8.81301 19.1091 7.91504 18.1363 7.91504 16.9839C7.91504 15.8315 8.81301 14.8587 9.98037 14.8587C10.1151 14.8587 10.2947 14.8587 10.4294 14.9186C11.2675 11.8355 13.8417 9.51577 16.9846 9.12665Z" fill="white"/>
</svg>
