<svg width="28" height="36" viewBox="0 0 28 36" fill="none" xmlns="http://www.w3.org/2000/svg">
<path d="M22.4144 2.89434C21.2984 2.89434 19.6244 5.89772 19.6244 8.4684C19.6244 10.3773 20.6846 12.0317 21.9959 12.3372L22.0796 12.3626L22.1633 12.3372C22.247 12.3117 22.3307 12.3117 22.4144 12.3117C22.4981 12.3117 22.5817 12.3117 22.6654 12.3372L22.7491 12.3626L22.8328 12.3372C24.1441 12.0317 25.2043 10.4028 25.2043 8.4684C25.2322 5.87226 23.5303 2.89434 22.4144 2.89434ZM6.59555 1.74899C7.26513 1.74899 7.79521 2.23258 7.79521 2.84344V11.6245C7.79521 12.2353 7.26513 12.7189 6.59555 12.7189C5.92597 12.7189 5.39589 12.2353 5.39589 11.6245V2.84344C5.36799 2.23258 5.92597 1.74899 6.59555 1.74899ZM22.4144 0.679993C25.5949 0.679993 27.6315 5.28686 27.6315 8.4684C27.6315 11.3445 26.0133 13.7116 23.7535 14.3733L23.6419 14.3988V34.6334C23.6419 35.2442 23.1118 35.7278 22.4423 35.7278C21.7727 35.7278 21.2426 35.2442 21.2426 34.6334V14.4242L21.131 14.3988C18.8433 13.7116 17.2251 11.3445 17.2251 8.4684C17.2251 5.28686 19.2618 0.679993 22.4144 0.679993ZM1.769 0.654541C2.43858 0.654541 2.96866 1.13813 2.96866 1.74899V12.7189C2.96866 13.3298 3.49874 13.8134 4.16832 13.8134C4.50311 13.8134 4.81 13.9406 5.0332 14.1697C5.25639 14.3988 5.36799 14.6788 5.36799 14.9842L4.16832 31.4518C4.16832 32.5972 5.25639 33.5644 6.56765 33.5644C7.87891 33.5644 8.96697 32.5717 8.96697 31.3755L7.76731 14.9842C7.73941 14.6788 7.85101 14.3733 8.1021 14.1697C8.32529 13.9406 8.66008 13.8134 8.96697 13.8134C9.63655 13.8134 10.1666 13.3298 10.1666 12.7189V1.74899C10.1666 1.13813 10.6967 0.654541 11.3663 0.654541C12.0359 0.654541 12.566 1.13813 12.566 1.74899V12.7189C12.566 14.1188 11.5895 15.3405 10.2224 15.7987L11.3663 31.2991C11.3663 33.7934 9.21807 35.7533 6.56765 35.7533C3.91723 35.7533 1.7411 33.7934 1.7411 31.35L2.88496 15.7732C1.54581 15.3405 0.569336 14.1443 0.569336 12.7189V1.74899C0.569336 1.13813 1.09942 0.654541 1.769 0.654541Z" fill="white"/>
</svg>
