<svg width="268" height="19" viewBox="0 0 268 19" fill="none" xmlns="http://www.w3.org/2000/svg">
<g clip-path="url(#clip0_198_1578)">
<path d="M16.5425 3.90332L14.3475 6.05689C12.9394 4.60737 11.3242 3.86191 9.50198 3.86191C7.8868 3.86191 6.56152 4.4003 5.44332 5.47709C4.32512 6.55387 3.82814 7.83773 3.82814 9.37008C3.82814 10.9438 4.40795 12.2691 5.52615 13.3873C6.64435 14.4641 8.05246 15.0439 9.70905 15.0439C10.7858 15.0439 11.697 14.8368 12.4424 14.3813C13.1879 13.9257 13.7677 13.2217 14.2233 12.2691H9.46056V9.32866H17.7021L17.7435 10.0327C17.7435 11.4822 17.3708 12.8075 16.6253 14.0914C15.8799 15.3752 14.9273 16.3692 13.7263 17.0318C12.5667 17.6945 11.1586 18.0258 9.58481 18.0258C7.8868 18.0258 6.35445 17.653 5.02917 16.9076C3.7039 16.1621 2.62711 15.1267 1.88165 13.7601C1.09476 12.3934 0.722031 10.9438 0.722031 9.32866C0.722031 7.17509 1.42608 5.27001 2.8756 3.69625C4.57361 1.79116 6.7686 0.838623 9.50198 0.838623C10.9101 0.838623 12.2768 1.08711 13.4778 1.6255C14.5546 2.08107 15.5485 2.82654 16.5425 3.90332Z" fill="white"/>
<path d="M20.8082 1.25281H24.1214C25.9437 1.25281 27.2275 1.41847 27.973 1.74979C28.7599 2.0811 29.3397 2.6195 29.8367 3.36496C30.2922 4.11043 30.5407 4.98014 30.5407 6.01551C30.5407 7.0923 30.2922 8.00343 29.7538 8.70748C29.2569 9.41153 28.47 9.99134 27.4346 10.3641L31.3276 17.6531H27.9316L24.2457 10.7368H23.9143V17.6531H20.8082V1.25281ZM23.9143 7.63069H24.9083C25.9023 7.63069 26.5649 7.50645 26.9376 7.25796C27.3104 7.00947 27.5174 6.55391 27.5174 5.9741C27.5174 5.60137 27.4346 5.31146 27.2275 5.02156C27.0205 4.73165 26.8134 4.56599 26.4821 4.44175C26.1507 4.31751 25.6123 4.27609 24.7841 4.27609H23.9143V7.63069Z" fill="white"/>
<path d="M36.6701 1.25281H33.564V17.6117H36.6701V1.25281Z" fill="white"/>
<path d="M40.1904 1.25281H43.2965V14.6298H47.8107V17.6117H40.1904V1.25281Z" fill="white"/>
<path d="M50.2128 1.25281H53.3189V14.6298H57.8331V17.6117H50.2128V1.25281Z" fill="white"/>
<path d="M63.0099 1.25281H66.1989L70.299 12.8904L74.4819 1.25281H77.7122L71.7899 17.6117H68.808L63.0099 1.25281Z" fill="white"/>
<path d="M83.0547 1.25281H79.9486V17.6117H83.0547V1.25281Z" fill="white"/>
<path d="M86.575 1.25281H89.5569L96.556 12.0207V1.25281H99.6621V17.6117H96.6802L89.6811 6.88523V17.6117H86.575V1.25281Z" fill="white"/>
<path d="M111.134 0.838623C113.453 0.838623 115.441 1.66692 117.098 3.36493C118.754 5.02152 119.583 7.09226 119.583 9.49432C119.583 11.8964 118.754 13.8843 117.098 15.5409C115.441 17.1975 113.453 18.0258 111.134 18.0258C108.691 18.0258 106.62 17.1561 105.005 15.4581C103.389 13.7601 102.561 11.7307 102.561 9.4115C102.561 7.83773 102.934 6.38821 103.679 5.10435C104.425 3.77908 105.46 2.74371 106.785 1.99824C108.194 1.21136 109.602 0.838623 111.134 0.838623ZM111.093 3.90332C109.56 3.90332 108.318 4.44171 107.282 5.47709C106.247 6.51246 105.75 7.87915 105.75 9.49432C105.75 11.3166 106.413 12.7247 107.697 13.8015C108.691 14.6298 109.85 15.0439 111.175 15.0439C112.666 15.0439 113.909 14.5055 114.944 13.4287C115.98 12.3519 116.518 11.0267 116.518 9.49432C116.518 7.92056 115.98 6.6367 114.944 5.55991C113.867 4.44171 112.584 3.90332 111.093 3.90332Z" fill="white"/>
<path d="M138.592 12.1862L140.166 14.0085L139.462 14.6711L138.758 15.3338L140.994 17.6944H137.764L136.853 16.7419C135.362 17.6116 133.995 18.0257 132.753 18.0257C131.676 18.0257 130.806 17.6944 130.143 17.0732C129.481 16.452 129.149 15.6237 129.149 14.6711C129.149 13.9257 129.357 13.2216 129.729 12.559C130.102 11.8963 130.765 11.2337 131.676 10.5296C130.765 9.32861 130.309 8.25183 130.309 7.29928C130.309 6.59523 130.599 5.93259 131.22 5.26996C131.8 4.60732 132.67 4.276 133.747 4.276C134.823 4.276 135.693 4.60732 136.273 5.26996C136.853 5.93259 137.143 6.59523 137.143 7.29928C137.143 7.83768 137.018 8.33465 136.728 8.83163C136.438 9.32861 135.859 10.0327 134.865 10.9852C135.983 12.3105 136.728 13.1388 137.06 13.4701C137.225 13.3044 137.722 12.8903 138.592 12.1862ZM135.113 14.8782C134.616 14.3812 133.954 13.5943 133.042 12.4761C132.09 13.263 131.634 13.9257 131.634 14.5055C131.634 14.7954 131.759 15.0439 132.007 15.2509C132.256 15.4994 132.587 15.5823 133.001 15.5823C133.539 15.6237 134.243 15.3752 135.113 14.8782ZM133.498 9.08012C134.202 8.4589 134.533 7.96192 134.533 7.46494C134.533 7.21645 134.451 7.00938 134.285 6.88514C134.119 6.71948 133.912 6.63665 133.664 6.63665C133.415 6.63665 133.208 6.71948 133.042 6.88514C132.877 7.0508 132.794 7.25787 132.794 7.46494C132.835 8.00334 133.084 8.50031 133.498 9.08012Z" fill="white"/>
<path d="M149.733 1.25281H153.211L156.649 6.51249L160.086 1.25281H163.607L158.43 9.16304L163.938 17.6117H160.418L156.649 11.855L152.88 17.6117H149.36L154.909 9.16304L149.733 1.25281Z" fill="white"/>
<path d="M171.393 1.25281H174.54L180.835 17.6117H177.605L176.321 14.2571H169.653L168.328 17.6117H165.098L171.393 1.25281ZM172.966 5.60137L170.771 11.1924H175.161L172.966 5.60137Z" fill="white"/>
<path d="M189.449 12.1863H188.414C186.923 12.1863 185.805 12.1035 185.101 11.9378C184.397 11.7722 183.693 11.4409 183.03 10.9439C182.368 10.4469 181.912 9.82568 181.663 9.08021C181.415 8.37616 181.249 7.3822 181.249 6.22259V1.25281H184.397V6.22259C184.397 7.34079 184.604 8.12767 184.977 8.54182C185.391 8.99738 186.219 9.20446 187.544 9.20446H189.449V1.25281H192.597V17.6117H189.449V12.1863Z" fill="white"/>
<path d="M201.584 1.25281H204.732L211.027 17.6117H207.796L206.512 14.2571H199.845L198.519 17.6117H195.289L201.584 1.25281ZM203.158 5.60137L200.963 11.1924H205.353L203.158 5.60137Z" fill="white"/>
<path d="M213.056 1.25281H224.818V17.6117H221.67V4.15185H216.203V17.6117H213.056V1.25281Z" fill="white"/>
<path d="M243.289 1.25281H246.602C248.383 1.25281 249.667 1.41847 250.454 1.74979C251.24 2.0811 251.862 2.6195 252.317 3.36496C252.773 4.11043 253.021 5.80844 253.021 6.84381C253.021 8.00343 252.731 9.74285 252.11 10.5297C251.53 11.2752 250.702 11.8136 249.667 12.1035C249.045 12.2692 247.969 12.352 246.395 12.352V17.6531H243.289V1.25281ZM246.395 9.28729H247.389C248.176 9.28729 248.714 9.24587 249.004 9.12163C249.294 8.99738 249.542 8.83172 249.708 8.58323C249.874 8.33475 249.957 7.17513 249.957 6.84381C249.957 6.22259 249.708 4.93873 249.211 4.64882C248.838 4.44175 248.176 4.31751 247.223 4.31751H246.353V9.28729H246.395Z" fill="white"/>
<path d="M267.972 1.25281V17.6117H264.824V7.3822L258.736 17.6117H256.045V1.25281H259.151V11.8136L265.321 1.25281H267.972Z" fill="white"/>
<path d="M237.615 1.25281H240.928L235.917 13.3874C234.592 16.6177 232.397 18.1915 229.332 17.9844V14.9197C230.243 15.0025 230.947 14.8783 231.486 14.547C232.024 14.2157 232.479 13.6773 232.852 12.9732L227.385 1.25281H230.699L234.343 9.3287L237.615 1.25281Z" fill="white"/>
</g>
<defs>
<clipPath id="clip0_198_1578">
<rect width="267.25" height="17.1872" fill="white" transform="translate(0.722031 0.838623)"/>
</clipPath>
</defs>
</svg>
