<svg width="401" height="27" viewBox="0 0 401 27" fill="none" xmlns="http://www.w3.org/2000/svg">
<g clip-path="url(#clip0_286_283)">
<path d="M24.0351 5.0388L20.7498 8.2621C18.6423 6.09257 16.2248 4.97681 13.4974 4.97681C11.0799 4.97681 9.09632 5.78264 7.42268 7.39429C5.74904 9.00594 5.0052 10.9275 5.0052 13.221C5.0052 15.5765 5.87302 17.5601 7.54666 19.2337C9.2203 20.8454 11.3278 21.7132 13.8073 21.7132C15.419 21.7132 16.7827 21.4033 17.8984 20.7214C19.0142 20.0396 19.882 18.9858 20.5639 17.5601H13.4354V13.159H25.7707L25.8327 14.2128C25.8327 16.3824 25.2748 18.3659 24.1591 20.2875C23.0433 22.2091 21.6176 23.6968 19.82 24.6886C18.0844 25.6804 15.9768 26.1763 13.6213 26.1763C11.0799 26.1763 8.78639 25.6184 6.80281 24.5026C4.81924 23.3869 3.20759 21.8372 2.09183 19.7916C0.914081 17.7461 0.356201 15.5765 0.356201 13.159C0.356201 9.93574 1.40997 7.08436 3.57951 4.72886C6.12096 1.87748 9.40626 0.451782 13.4974 0.451782C15.6049 0.451782 17.6505 0.823702 19.4481 1.62953C21.0597 2.31138 22.5474 3.42714 24.0351 5.0388Z" fill="white"/>
<path d="M30.4197 1.07166H35.3786C38.106 1.07166 40.0276 1.3196 41.1434 1.8155C42.3211 2.31139 43.1889 3.11722 43.9328 4.23298C44.6146 5.34874 44.9865 6.65046 44.9865 8.20012C44.9865 9.81178 44.6146 11.1755 43.8088 12.2293C43.065 13.283 41.8872 14.1508 40.3375 14.7087L46.1643 25.6184H41.0814L35.5646 15.2666H35.0687V25.6184H30.4197V1.07166ZM35.0687 10.6176H36.5564C38.044 10.6176 39.0358 10.4316 39.5937 10.0597C40.1516 9.6878 40.4615 9.00595 40.4615 8.13814C40.4615 7.58026 40.3375 7.14635 40.0276 6.71244C39.7177 6.27854 39.4077 6.03059 38.9119 5.84463C38.416 5.65867 37.6101 5.59668 36.3704 5.59668H35.0687V10.6176Z" fill="white"/>
<path d="M54.1607 1.07166H49.5117V25.5564H54.1607V1.07166Z" fill="white"/>
<path d="M59.4294 1.07166H64.0784V21.0933H70.835V25.5564H59.4294V1.07166Z" fill="white"/>
<path d="M74.4302 1.07166H79.0792V21.0933H85.8357V25.5564H74.4302V1.07166Z" fill="white"/>
<path d="M93.5842 1.07166H98.3572L104.494 18.4899L110.755 1.07166H115.589L106.725 25.5564H102.262L93.5842 1.07166Z" fill="white"/>
<path d="M123.586 1.07166H118.937V25.5564H123.586V1.07166Z" fill="white"/>
<path d="M128.854 1.07166H133.318L143.793 17.1882V1.07166H148.442V25.5564H143.979L133.503 9.50184V25.5564H128.854V1.07166Z" fill="white"/>
<path d="M165.613 0.451782C169.084 0.451782 172.059 1.69152 174.539 4.23297C177.018 6.71244 178.258 9.81177 178.258 13.407C178.258 17.0022 177.018 19.9776 174.539 22.4571C172.059 24.9365 169.084 26.1763 165.613 26.1763C161.956 26.1763 158.856 24.8745 156.439 22.3331C154.021 19.7916 152.781 16.7543 152.781 13.283C152.781 10.9275 153.339 8.758 154.455 6.83641C155.571 4.85284 157.121 3.30317 159.104 2.18741C161.212 1.00966 163.319 0.451782 165.613 0.451782ZM165.551 5.0388C163.257 5.0388 161.398 5.84462 159.848 7.39429C158.298 8.94396 157.554 10.9895 157.554 13.407C157.554 16.1344 158.546 18.242 160.468 19.8536C161.956 21.0933 163.691 21.7132 165.675 21.7132C167.906 21.7132 169.766 20.9074 171.316 19.2957C172.865 17.6841 173.671 15.7005 173.671 13.407C173.671 11.0515 172.865 9.12992 171.316 7.51826C169.704 5.84462 167.782 5.0388 165.551 5.0388Z" fill="white"/>
<path d="M206.71 17.4361L209.065 20.1635L208.012 21.1553L206.958 22.1471L210.305 25.6804H205.47L204.106 24.2547C201.875 25.5564 199.829 26.1763 197.97 26.1763C196.358 26.1763 195.056 25.6804 194.065 24.7506C193.073 23.8208 192.577 22.581 192.577 21.1553C192.577 20.0396 192.887 18.9858 193.445 17.994C194.003 17.0022 194.994 16.0104 196.358 14.9567C194.994 13.1591 194.313 11.5474 194.313 10.1217C194.313 9.06793 194.746 8.07615 195.676 7.08436C196.544 6.09257 197.846 5.59668 199.457 5.59668C201.069 5.59668 202.371 6.09257 203.239 7.08436C204.106 8.07615 204.54 9.06793 204.54 10.1217C204.54 10.9275 204.354 11.6714 203.92 12.4152C203.487 13.1591 202.619 14.2128 201.131 15.6385C202.805 17.6221 203.92 18.8618 204.416 19.3577C204.664 19.1098 205.408 18.4899 206.71 17.4361ZM201.503 21.4653C200.759 20.7214 199.767 19.5437 198.404 17.87C196.978 19.0478 196.296 20.0396 196.296 20.9074C196.296 21.3413 196.482 21.7132 196.854 22.0231C197.226 22.3951 197.722 22.519 198.342 22.519C199.147 22.581 200.201 22.2091 201.503 21.4653ZM199.086 12.7871C200.139 11.8573 200.635 11.1135 200.635 10.3697C200.635 9.99773 200.511 9.6878 200.263 9.50184C200.015 9.25389 199.705 9.12992 199.333 9.12992C198.962 9.12992 198.652 9.25389 198.404 9.50184C198.156 9.74979 198.032 10.0597 198.032 10.3697C198.094 11.1755 198.466 11.9193 199.086 12.7871Z" fill="white"/>
<path d="M223.384 1.07166H228.591L233.736 8.94396L238.881 1.07166H244.15L236.401 12.9111L244.646 25.5564H239.377L233.736 16.9402L228.095 25.5564H222.826L231.133 12.9111L223.384 1.07166Z" fill="white"/>
<path d="M255.803 1.07166H260.514L269.936 25.5564H265.101L263.18 20.5355H253.2L251.216 25.5564H246.381L255.803 1.07166ZM258.159 7.58026L254.874 15.9485H261.444L258.159 7.58026Z" fill="white"/>
<path d="M282.83 17.4361H281.28C279.048 17.4361 277.375 17.3122 276.321 17.0642C275.267 16.8163 274.213 16.3204 273.222 15.5765C272.23 14.8327 271.548 13.9029 271.176 12.7871C270.804 11.7334 270.556 10.2457 270.556 8.51006V1.07166H275.267V8.51006C275.267 10.1837 275.577 11.3614 276.135 11.9813C276.755 12.6632 277.995 12.9731 279.978 12.9731H282.83V1.07166H287.54V25.5564H282.83V17.4361Z" fill="white"/>
<path d="M300.992 1.07166H305.703L315.125 25.5564H310.29L308.368 20.5355H298.388L296.405 25.5564H291.57L300.992 1.07166ZM303.347 7.58026L300.062 15.9485H306.632L303.347 7.58026Z" fill="white"/>
<path d="M318.162 1.07166H335.766V25.5564H331.055V5.41072H322.873V25.5564H318.162V1.07166Z" fill="white"/>
<path d="M363.412 1.07166H368.371C371.036 1.07166 372.958 1.3196 374.136 1.8155C375.314 2.31139 376.243 3.11722 376.925 4.23298C377.607 5.34874 377.979 7.89019 377.979 9.43986C377.979 11.1755 377.545 13.7789 376.615 14.9567C375.747 16.0724 374.508 16.8783 372.958 17.3122C372.028 17.5601 370.417 17.6841 368.061 17.6841V25.6184H363.412V1.07166ZM368.061 13.0971H369.549C370.727 13.0971 371.532 13.0351 371.966 12.8491C372.4 12.6632 372.772 12.4152 373.02 12.0433C373.268 11.6714 373.392 9.93575 373.392 9.43986C373.392 8.51006 373.02 6.58847 372.276 6.15456C371.718 5.84463 370.727 5.65867 369.301 5.65867H367.999V13.0971H368.061Z" fill="white"/>
<path d="M400.356 1.07166V25.5564H395.645V10.2457L386.533 25.5564H382.504V1.07166H387.153V16.8783L396.389 1.07166H400.356Z" fill="white"/>
<path d="M354.92 1.07166H359.879L352.379 19.2337C350.395 24.0687 347.11 26.4242 342.523 26.1143V21.5273C343.886 21.6512 344.94 21.4653 345.746 20.9694C346.552 20.4735 347.234 19.6677 347.792 18.6139L339.609 1.07166H344.568L350.023 13.1591L354.92 1.07166Z" fill="white"/>
</g>
<defs>
<clipPath id="clip0_286_283">
<rect width="400" height="25.7245" fill="white" transform="translate(0.356201 0.451782)"/>
</clipPath>
</defs>
</svg>
