<svg width="244" height="17" viewBox="0 0 244 17" fill="none" xmlns="http://www.w3.org/2000/svg">
<g clip-path="url(#clip0_198_1426)">
<path d="M15.1705 3.32733L13.1781 5.28218C11.8999 3.96641 10.4338 3.28973 8.77966 3.28973C7.31351 3.28973 6.11052 3.77845 5.0955 4.75588C4.08047 5.73331 3.62935 6.8987 3.62935 8.28966C3.62935 9.71821 4.15566 10.9212 5.17069 11.9362C6.18571 12.9137 7.46389 13.44 8.96762 13.44C9.94505 13.44 10.7721 13.252 11.4488 12.8385C12.1255 12.4249 12.6518 11.7859 13.0653 10.9212H8.74206V8.25207H16.2232L16.2608 8.89116C16.2608 10.2069 15.9224 11.4099 15.2457 12.5753C14.569 13.7407 13.7044 14.643 12.6142 15.2444C11.5616 15.8459 10.2834 16.1467 8.85484 16.1467C7.31351 16.1467 5.92255 15.8083 4.71956 15.1317C3.51657 14.455 2.53914 13.5151 1.86246 12.2746C1.14819 11.034 0.809845 9.71821 0.809845 8.25207C0.809845 6.29721 1.44893 4.56791 2.7647 3.13936C4.30604 1.41006 6.29849 0.54541 8.77966 0.54541C10.0578 0.54541 11.2984 0.770971 12.3886 1.25969C13.3661 1.67321 14.2683 2.3499 15.1705 3.32733Z" fill="white"/>
<path d="M19.0427 0.921387H22.0501C23.7043 0.921387 24.8696 1.07176 25.5463 1.37251C26.2606 1.67326 26.7869 2.16197 27.238 2.83865C27.6516 3.51533 27.8771 4.3048 27.8771 5.24463C27.8771 6.22206 27.6516 7.04912 27.1628 7.68821C26.7117 8.3273 25.9975 8.8536 25.0576 9.19195L28.5914 15.8084H25.5087L22.1629 9.53029H21.8622V15.8084H19.0427V0.921387ZM21.8622 6.71078H22.7644C23.6667 6.71078 24.2682 6.598 24.6065 6.37244C24.9448 6.14688 25.1328 5.73335 25.1328 5.20704C25.1328 4.8687 25.0576 4.60554 24.8696 4.34239C24.6817 4.07924 24.4937 3.92886 24.193 3.81608C23.8922 3.7033 23.4035 3.66571 22.6516 3.66571H21.8622V6.71078Z" fill="white"/>
<path d="M33.441 0.921387H30.6215V15.7708H33.441V0.921387Z" fill="white"/>
<path d="M36.6364 0.921387H39.4559V13.0641H43.5536V15.7708H36.6364V0.921387Z" fill="white"/>
<path d="M45.734 0.921387H48.5535V13.0641H52.6512V15.7708H45.734V0.921387Z" fill="white"/>
<path d="M57.3504 0.921387H60.2451L63.9669 11.4851L67.7638 0.921387H70.6961L65.3202 15.7708H62.6135L57.3504 0.921387Z" fill="white"/>
<path d="M75.5456 0.921387H72.7261V15.7708H75.5456V0.921387Z" fill="white"/>
<path d="M78.7411 0.921387H81.4478L87.8011 10.6957V0.921387H90.6206V15.7708H87.9139L81.5606 6.0341V15.7708H78.7411V0.921387Z" fill="white"/>
<path d="M101.034 0.54541C103.139 0.54541 104.944 1.29728 106.447 2.83861C107.951 4.34235 108.703 6.22202 108.703 8.40244C108.703 10.5829 107.951 12.3873 106.447 13.8911C104.944 15.3948 103.139 16.1467 101.034 16.1467C98.816 16.1467 96.9363 15.3572 95.4702 13.8159C94.004 12.2746 93.2521 10.4325 93.2521 8.32725C93.2521 6.8987 93.5905 5.58293 94.2672 4.41754C94.9438 3.21454 95.8837 2.27471 97.0867 1.59803C98.3649 0.883751 99.643 0.54541 101.034 0.54541ZM100.996 3.32733C99.6054 3.32733 98.4776 3.81604 97.5378 4.75588C96.598 5.69571 96.1468 6.9363 96.1468 8.40244C96.1468 10.0566 96.7483 11.3347 97.9137 12.3122C98.816 13.064 99.8686 13.44 101.072 13.44C102.425 13.44 103.553 12.9512 104.493 11.9738C105.432 10.9964 105.921 9.7934 105.921 8.40244C105.921 6.97389 105.432 5.80849 104.493 4.83106C103.515 3.81604 102.35 3.32733 100.996 3.32733Z" fill="white"/>
<path d="M125.958 10.846L127.387 12.5001L126.748 13.1016L126.109 13.7031L128.139 15.8459H125.207L124.38 14.9813C123.026 15.7707 121.786 16.1467 120.658 16.1467C119.68 16.1467 118.891 15.8459 118.289 15.282C117.688 14.7181 117.387 13.9663 117.387 13.1016C117.387 12.4249 117.575 11.7858 117.913 11.1843C118.252 10.5828 118.853 9.98135 119.68 9.34226C118.853 8.25205 118.44 7.27462 118.44 6.40997C118.44 5.77088 118.703 5.16939 119.267 4.56789C119.793 3.9664 120.583 3.66565 121.56 3.66565C122.537 3.66565 123.327 3.9664 123.853 4.56789C124.38 5.16939 124.643 5.77088 124.643 6.40997C124.643 6.89869 124.53 7.34981 124.267 7.80093C124.004 8.25205 123.477 8.89114 122.575 9.75579C123.59 10.9588 124.267 11.7106 124.567 12.0114C124.718 11.861 125.169 11.4851 125.958 10.846ZM122.801 13.2896C122.349 12.8385 121.748 12.1242 120.921 11.1092C120.056 11.8234 119.643 12.4249 119.643 12.9512C119.643 13.2144 119.756 13.4399 119.981 13.6279C120.207 13.8535 120.507 13.9287 120.883 13.9287C121.372 13.9663 122.011 13.7407 122.801 13.2896ZM121.334 8.02649C121.974 7.46259 122.274 7.01147 122.274 6.56034C122.274 6.33478 122.199 6.14682 122.049 6.03404C121.898 5.88366 121.71 5.80848 121.485 5.80848C121.259 5.80848 121.071 5.88366 120.921 6.03404C120.771 6.18441 120.695 6.37238 120.695 6.56034C120.733 7.04906 120.959 7.50018 121.334 8.02649Z" fill="white"/>
<path d="M136.071 0.921387H139.229L142.349 5.69575L145.469 0.921387H148.665L143.966 8.10174L148.966 15.7708H145.77L142.349 10.5453L138.928 15.7708H135.733L140.77 8.10174L136.071 0.921387Z" fill="white"/>
<path d="M155.732 0.921387H158.59L164.304 15.7708H161.371L160.206 12.7257H154.154L152.951 15.7708H150.018L155.732 0.921387ZM157.161 4.8687L155.169 9.94381H159.153L157.161 4.8687Z" fill="white"/>
<path d="M172.123 10.8461H171.183C169.83 10.8461 168.815 10.7709 168.176 10.6205C167.537 10.4701 166.898 10.1694 166.296 9.71825C165.695 9.26713 165.281 8.70323 165.056 8.02655C164.83 7.38746 164.68 6.48522 164.68 5.4326V0.921387H167.537V5.4326C167.537 6.44762 167.725 7.1619 168.063 7.53783C168.439 7.95136 169.191 8.13933 170.394 8.13933H172.123V0.921387H174.98V15.7708H172.123V10.8461Z" fill="white"/>
<path d="M183.138 0.921387H185.995L191.709 15.7708H188.777L187.612 12.7257H181.559L180.356 15.7708H177.424L183.138 0.921387ZM184.567 4.8687L182.574 9.94381H186.559L184.567 4.8687Z" fill="white"/>
<path d="M193.551 0.921387H204.228V15.7708H201.371V3.55293H196.409V15.7708H193.551V0.921387Z" fill="white"/>
<path d="M220.995 0.921387H224.002C225.619 0.921387 226.784 1.07176 227.498 1.37251C228.213 1.67326 228.777 2.16197 229.19 2.83865C229.604 3.51533 229.829 5.05667 229.829 5.9965C229.829 7.04912 229.566 8.62804 229.002 9.34232C228.476 10.019 227.724 10.5077 226.784 10.7709C226.22 10.9212 225.243 10.9964 223.814 10.9964V15.8084H220.995V0.921387ZM223.814 8.21451H224.716C225.431 8.21451 225.919 8.17692 226.183 8.06414C226.446 7.95136 226.671 7.80099 226.822 7.57543C226.972 7.34987 227.047 6.29725 227.047 5.9965C227.047 5.4326 226.822 4.2672 226.371 4.00405C226.032 3.81608 225.431 3.7033 224.566 3.7033H223.777V8.21451H223.814Z" fill="white"/>
<path d="M243.4 0.921387V15.7708H240.543V6.48522L235.017 15.7708H232.573V0.921387H235.393V10.5077L240.994 0.921387H243.4Z" fill="white"/>
<path d="M215.844 0.921387H218.852L214.303 11.9363C213.1 14.8686 211.108 16.2971 208.326 16.1091V13.3272C209.153 13.4024 209.792 13.2896 210.281 12.9889C210.769 12.6881 211.183 12.1994 211.521 11.5603L206.559 0.921387H209.566L212.874 8.25211L215.844 0.921387Z" fill="white"/>
</g>
<defs>
<clipPath id="clip0_198_1426">
<rect width="242.591" height="15.6013" fill="white" transform="translate(0.809845 0.54541)"/>
</clipPath>
</defs>
</svg>
