<svg width="22" height="22" viewBox="0 0 22 22" fill="none" xmlns="http://www.w3.org/2000/svg">
<path d="M16.4764 13.0281L16.0059 14.6148C15.9148 14.929 15.6416 15.1489 15.3229 15.1489H13.699L15.0346 16.2014C15.2774 16.3899 15.3836 16.7198 15.2926 17.0183L14.7917 18.6678L16.0362 17.6781C16.1577 17.5682 16.3094 17.521 16.4764 17.521C16.6282 17.521 16.7951 17.5682 16.9165 17.6781L18.161 18.6678L17.6602 17.0183C17.5691 16.7198 17.6754 16.3899 17.9182 16.2014L19.2538 15.1489H17.6298C17.3111 15.1489 17.0379 14.929 16.9469 14.6148L16.4764 13.0281ZM9.9351 2.09419C7.94691 2.09419 6.33815 3.75941 6.33815 5.81737C6.33815 7.81249 7.85585 9.44629 9.75297 9.54055H10.1172C12.0143 9.44629 13.532 7.81249 13.532 5.81737C13.532 3.77512 11.9081 2.09419 9.9351 2.09419ZM9.9351 0.743164C12.6366 0.743164 14.8373 3.02106 14.8373 5.81737C14.8373 7.48259 14.0632 8.9593 12.8643 9.88616L12.7277 9.99613L12.8946 10.0433C13.8356 10.3732 14.731 10.8602 15.5202 11.5043L15.5506 11.5357L15.7782 10.7502C15.8693 10.436 16.1425 10.2161 16.4612 10.2161C16.7799 10.2161 17.0531 10.4203 17.1442 10.7502L18.0548 13.7979H20.9688C21.2723 13.7979 21.5607 14.0021 21.6517 14.3006C21.758 14.6148 21.6517 14.9447 21.4089 15.1332L19.0261 17.0183L19.9367 20.0817C20.0278 20.3959 19.9216 20.7258 19.6636 20.9143C19.5421 21.0086 19.3904 21.0557 19.2538 21.0557C19.102 21.0557 18.9502 21.0086 18.8136 20.8986L16.4612 19.0449L14.1239 20.9143C13.8811 21.1185 13.532 21.1185 13.274 20.93C13.016 20.7415 12.9098 20.4116 13.0008 20.0974L13.9115 17.034L11.5287 15.1489C11.2858 14.9604 11.1796 14.6148 11.2858 14.3163C11.3921 14.0178 11.6653 13.8136 11.9688 13.8136H14.8828L15.1408 12.9495C13.7445 11.6614 11.9688 10.9544 10.1172 10.9073H9.72262C5.48824 11.0173 2.07341 14.599 2.07341 18.982H0.768188C0.768188 14.8347 3.37863 11.3157 6.99076 10.0433L7.12735 9.99613L6.99076 9.90187C5.79178 8.97501 5.01775 7.4983 5.01775 5.83308C5.01775 3.02106 7.21841 0.743164 9.9351 0.743164Z" fill="white"/>
</svg>
