<svg width="36" height="36" viewBox="0 0 36 36" fill="none" xmlns="http://www.w3.org/2000/svg">
<circle cx="17.7576" cy="18.1011" r="17.5" fill="#831335"/>
<path d="M19.3455 13.8077L19.086 14.3249C15.9718 20.2158 11.315 24.5262 8.99377 26.4371C15.6546 25.8911 21.1188 18.5204 22.5606 16.3795L22.6182 16.2933L22.5029 16.2071C22.1713 15.9772 21.7676 15.7905 21.3063 15.7473C20.8737 15.7042 20.4989 15.4456 20.2826 15.0433C20.1384 14.756 19.8357 14.2387 19.3887 13.8364L19.3455 13.8077ZM24.2042 9.98579L22.8345 11.8536C22.6759 12.0835 22.3732 12.1697 22.1136 12.0691C21.3495 11.7818 20.3691 11.9829 19.5906 12.3278L19.4897 12.3709L19.5329 12.3996C19.5473 12.414 19.5617 12.4283 19.5762 12.4427L19.6194 12.4858C20.5133 13.0174 21.0756 13.9082 21.3783 14.483C22.3011 14.5835 23.0364 15.0002 23.5842 15.4887L23.6419 15.5318H23.6707C23.714 15.5462 23.7428 15.5606 23.7861 15.5893C23.8437 15.618 23.887 15.6611 23.9302 15.7042L23.9591 15.7473L23.9735 15.6755C24.0888 14.8996 24.06 13.8795 23.44 13.0749C23.267 12.845 23.267 12.5146 23.4545 12.299L24.9539 10.5461L24.2042 9.98579ZM24.0456 8.49152C24.1897 8.49152 24.3339 8.53462 24.4493 8.62083L26.237 9.95705C26.3668 10.0576 26.4677 10.2157 26.4821 10.3881C26.4965 10.5605 26.4533 10.7329 26.3379 10.8622L24.7088 12.7588C25.5162 14.1525 25.2711 15.7617 25.0548 16.6382C24.9395 17.0692 24.5502 17.3709 24.0888 17.3709C23.9014 17.3709 23.714 17.3135 23.5554 17.2129L23.5121 17.1841L23.4977 17.1985C21.782 19.7417 15.7844 27.7015 8.21522 27.7015C7.85479 27.7015 7.49435 27.6871 7.13392 27.644C6.8744 27.6153 6.65814 27.4429 6.60047 27.1843C6.52838 26.94 6.62931 26.667 6.84557 26.5233C6.91765 26.4659 14.1408 21.2647 18.1777 13.3623L18.2209 13.2761L18.1633 13.2473C17.9326 13.118 17.7596 12.9025 17.7019 12.6295C17.6298 12.2703 17.7884 11.9111 18.0912 11.7243C18.8409 11.2502 20.0087 10.6755 21.2486 10.6755C21.5369 10.6755 21.8109 10.7042 22.0848 10.7617L23.5698 8.73577C23.6707 8.60646 23.8149 8.52025 23.9879 8.49152C24.0167 8.49152 24.0312 8.49152 24.0456 8.49152Z" fill="white"/>
</svg>
