<svg width="25" height="21" viewBox="0 0 25 21" fill="none" xmlns="http://www.w3.org/2000/svg">
<g clip-path="url(#clip0_235_2026)">
<path fill-rule="evenodd" clip-rule="evenodd" d="M18.872 20.7424C19.172 20.9424 19.572 21.0424 19.972 20.8424C20.372 20.7424 20.572 20.3424 20.672 20.0424C21.572 15.9424 23.672 5.64237 24.472 1.94237C24.572 1.64237 24.472 1.34237 24.172 1.14237C23.972 0.94237 23.672 0.94237 23.372 1.04237C19.172 2.54237 6.27205 7.34237 0.972046 9.34237C0.672046 9.44237 0.472046 9.74237 0.472046 10.1424C0.472046 10.5424 0.772046 10.8424 1.07205 10.9424C3.47205 11.6424 6.57205 12.6424 6.57205 12.6424C6.57205 12.6424 8.07205 17.0424 8.77205 19.2424C8.87205 19.5424 9.07205 19.7424 9.37205 19.8424C9.67205 19.9424 9.97205 19.8424 10.172 19.6424C11.372 18.5424 13.272 16.7424 13.272 16.7424C13.272 16.7424 16.872 19.2424 18.872 20.7424ZM7.87205 12.0424L9.57205 17.5424L9.97205 14.0424C9.97205 14.0424 16.472 8.14237 20.172 4.84237C20.272 4.74237 20.272 4.54237 20.172 4.44237C20.072 4.34237 19.872 4.34237 19.772 4.34237C15.472 7.14237 7.87205 12.0424 7.87205 12.0424Z" fill="white"/>
</g>
<defs>
<clipPath id="clip0_235_2026">
<rect width="24" height="20" fill="white" transform="translate(0.472046 0.942383)"/>
</clipPath>
</defs>
</svg>
