<svg width="33" height="33" viewBox="0 0 33 33" fill="none" xmlns="http://www.w3.org/2000/svg">
<path d="M30.4293 2.51688C28.2139 0.280518 24.5216 0.280518 17.3011 0.280518H15.9882C8.76773 0.280518 5.15747 0.280518 2.86004 2.51688C0.644653 4.83607 0.644653 8.48052 0.644653 15.7694V17.0947C0.644653 24.3835 0.644653 28.1108 2.86004 30.3472C5.07542 32.5835 8.76773 32.5835 15.9882 32.5835H17.3011C24.5216 32.5835 28.2139 32.5835 30.4293 30.3472C32.6447 28.1108 32.6447 24.3835 32.6447 17.0947V15.7694C32.7267 8.48052 32.7267 4.83607 30.4293 2.51688ZM23.619 23.5553C22.7985 20.9876 20.7472 18.9997 18.1216 18.7512V23.5553H17.7113C10.4088 23.5553 6.22414 18.5027 6.06004 10.0543H9.67029C9.75235 16.2664 12.46 18.8341 14.5934 19.4139V10.1371H18.0395V15.4381C20.1729 15.1896 22.3882 12.7876 23.1267 10.1371H26.5729C26.0806 13.4502 23.619 15.8522 21.978 16.8462C23.7011 17.6745 26.4088 19.7452 27.4754 23.6381H23.619V23.5553Z" fill="white"/>
</svg>
